<svg width="300" height="300" viewBox="0 0 300 300" fill="none" xmlns="http://www.w3.org/2000/svg">
<path d="M239.4 60.516C238.74 58.962 238.02 57.432 237.228 55.926C214.656 12.774 119.184 -22.272 101.028 42.666C94.7294 65.0826 83.1664 85.67 67.302 102.714C54.174 116.73 38.148 128.4 28.41 144.888C18.6 161.562 16.2 182.298 21.294 201C29.952 232.638 58.152 255.516 88.254 268.542C133.896 288.294 189.186 289.188 231.798 263.544C260.388 246.336 282.708 215.262 280.998 181.944C279.42 151.41 258.93 125.412 249.798 96.228C246.102 84.366 244.2 71.856 239.4 60.516Z" fill="#B1E4F9"/>
<path opacity="0.7" d="M239.4 60.516C238.74 58.962 238.02 57.432 237.228 55.926C214.656 12.774 119.184 -22.272 101.028 42.666C94.7294 65.0826 83.1665 85.67 67.302 102.714C54.174 116.73 38.148 128.4 28.41 144.888C18.6 161.562 16.2 182.298 21.294 201C29.952 232.638 58.1519 255.516 88.254 268.542C133.896 288.294 189.186 289.188 231.798 263.544C260.388 246.336 282.708 215.262 280.998 181.944C279.42 151.41 258.93 125.412 249.798 96.228C246.102 84.366 244.2 71.856 239.4 60.516Z" fill="white"/>
<path fill-rule="evenodd" clip-rule="evenodd" d="M101.019 144.157C100.136 144.157 99.2735 144.418 98.5396 144.909C97.8057 145.399 97.2337 146.096 96.8958 146.911C96.558 147.726 96.4695 148.624 96.6416 149.489C96.8137 150.355 97.2387 151.15 97.8627 151.774C98.4867 152.398 99.2818 152.824 100.147 152.996C101.013 153.168 101.91 153.08 102.726 152.742C103.541 152.404 104.238 151.833 104.729 151.099C105.219 150.365 105.481 149.502 105.481 148.62C105.481 148.034 105.366 147.453 105.142 146.912C104.917 146.37 104.589 145.878 104.174 145.464C103.76 145.049 103.268 144.721 102.727 144.496C102.185 144.272 101.605 144.157 101.019 144.157ZM98.9659 145.493C99.1893 145.22 99.5033 145.035 99.8509 144.973C99.9707 144.946 100.093 144.932 100.216 144.931C100.707 144.931 100.94 145.182 100.738 145.493C100.514 145.767 100.199 145.951 99.8509 146.014C99.7311 146.041 99.6088 146.055 99.4859 146.056C98.9969 146.056 98.7633 145.806 98.9659 145.493ZM98.9786 146.421C99.2342 146.421 99.3546 146.553 99.2505 146.714C99.1332 146.857 98.9689 146.954 98.7871 146.986C98.7242 147.001 98.6599 147.008 98.5955 147.008C98.3417 147.008 98.2194 146.877 98.3253 146.714C98.4424 146.573 98.606 146.477 98.7871 146.444C98.8499 146.43 98.9141 146.422 98.9786 146.421ZM100.931 152.206C100.565 152.206 100.201 152.151 99.8509 152.042C99.2516 151.855 98.711 151.516 98.2821 151.057C97.8532 150.598 97.5506 150.036 97.4039 149.426C97.2571 148.815 97.2713 148.177 97.4449 147.573C97.6186 146.97 97.9458 146.422 98.3946 145.983C97.9967 146.553 97.7688 147.224 97.7376 147.919C97.7157 148.408 97.798 148.896 97.9789 149.35C98.1598 149.805 98.4353 150.216 98.787 150.556C99.0968 150.857 99.4569 151.102 99.8509 151.279C100.363 151.508 100.918 151.625 101.479 151.623C102.221 151.623 102.951 151.424 103.59 151.047C103.251 151.413 102.839 151.704 102.382 151.904C101.924 152.103 101.43 152.206 100.931 152.206Z" fill="#5DCCFC"/>
<path fill-rule="evenodd" clip-rule="evenodd" d="M81.0711 108.856C82.4304 89.0725 93.578 87.6215 101.206 66C108.834 87.6215 119.981 89.0725 121.341 108.856C123.425 139.193 78.9865 139.193 81.0711 108.856Z" fill="#5DCCFC"/>
<path fill-rule="evenodd" clip-rule="evenodd" d="M184.586 121.518C185.581 107.046 193.736 105.984 199.316 90.167C204.896 105.984 213.051 107.046 214.046 121.518C215.571 143.711 183.061 143.711 184.586 121.518Z" fill="#5DCCFC"/>
<path fill-rule="evenodd" clip-rule="evenodd" d="M184.836 156.932C182.659 125.255 164.811 122.932 152.596 88.3125C140.383 122.932 122.534 125.255 120.358 156.932C117.02 205.505 188.174 205.505 184.836 156.932ZM139.767 131.765C137.469 134.849 135.592 138.226 134.188 141.808C131.747 148.121 130.763 154.905 131.31 161.652C131.767 167.193 133.095 174.836 138.495 177.73C141.149 179.153 138.787 183.184 136.137 181.764C132.411 179.767 130.157 176.104 128.757 172.231C126.229 165.239 125.99 157.356 127.138 150.072C128.317 142.597 131.264 135.513 135.733 129.407C136.056 128.883 136.568 128.503 137.163 128.347C137.758 128.191 138.391 128.27 138.929 128.569C139.461 128.885 139.847 129.397 140.004 129.995C140.161 130.593 140.076 131.229 139.767 131.765ZM149.184 185.965C148.999 186.541 148.619 187.034 148.111 187.361C147.851 187.529 147.551 187.625 147.242 187.638C146.933 187.708 146.612 187.694 146.311 187.597C145.512 187.324 144.713 187.052 143.913 186.78C143.524 186.672 143.168 186.465 142.883 186.179L142.517 185.706C142.308 185.349 142.198 184.942 142.198 184.527L142.282 183.906C142.467 183.331 142.847 182.837 143.355 182.51C143.615 182.342 143.915 182.246 144.224 182.233C144.533 182.163 144.854 182.178 145.155 182.275L147.553 183.092C147.942 183.199 148.298 183.406 148.583 183.692L148.949 184.165C149.158 184.523 149.268 184.93 149.268 185.344C149.24 185.551 149.212 185.758 149.184 185.965Z" fill="#5DCCFC"/>
<path fill-rule="evenodd" clip-rule="evenodd" d="M176.857 85.6636C175.975 85.6635 175.112 85.9251 174.378 86.4154C173.644 86.9056 173.072 87.6025 172.734 88.4179C172.396 89.2333 172.308 90.1305 172.48 90.9962C172.652 91.8618 173.077 92.657 173.701 93.2812C174.325 93.9053 175.12 94.3304 175.986 94.5027C176.851 94.6749 177.749 94.5867 178.564 94.249C179.38 93.9113 180.077 93.3394 180.567 92.6056C181.057 91.8718 181.319 91.0091 181.319 90.1265C181.319 89.5404 181.204 88.9601 180.98 88.4186C180.756 87.8772 180.427 87.3852 180.013 86.9707C179.598 86.5563 179.107 86.2276 178.565 86.0033C178.024 85.779 177.443 85.6636 176.857 85.6636ZM174.804 87.0003C175.028 86.7268 175.342 86.5423 175.689 86.4802C175.809 86.453 175.931 86.4389 176.054 86.4383C176.545 86.4383 176.779 86.6892 176.576 87.0003C176.352 87.2738 176.038 87.4583 175.689 87.5204C175.57 87.5477 175.447 87.5617 175.324 87.5624C174.835 87.5624 174.602 87.3124 174.804 87.0003ZM174.817 87.9283C175.073 87.9283 175.193 88.0597 175.089 88.2213C174.972 88.3641 174.807 88.4605 174.625 88.4932C174.563 88.5076 174.498 88.515 174.434 88.5151C174.18 88.5151 174.058 88.3837 174.164 88.2213C174.281 88.0794 174.444 87.9837 174.625 87.9512C174.688 87.9365 174.753 87.9288 174.817 87.9283ZM176.77 93.7125C176.404 93.7127 176.039 93.6576 175.689 93.5492C175.09 93.3619 174.549 93.0224 174.121 92.5637C173.692 92.1051 173.389 91.543 173.242 90.9324C173.096 90.3219 173.11 89.6837 173.283 89.0802C173.457 88.4768 173.784 87.9287 174.233 87.4895C173.835 88.0596 173.607 88.7311 173.576 89.4257C173.554 89.9145 173.636 90.4024 173.817 90.857C173.998 91.3116 174.274 91.7226 174.625 92.0628C174.935 92.3639 175.295 92.6085 175.689 92.7854C176.201 93.0144 176.756 93.1316 177.317 93.1294C178.06 93.1295 178.789 92.9306 179.429 92.5537C179.089 92.9195 178.678 93.2112 178.22 93.4106C177.763 93.6101 177.269 93.7128 176.77 93.7125Z" fill="#5DCCFC"/>
<path fill-rule="evenodd" clip-rule="evenodd" d="M194.611 178.167C193.728 178.167 192.865 178.429 192.131 178.919C191.397 179.409 190.825 180.106 190.488 180.922C190.15 181.737 190.061 182.634 190.233 183.5C190.405 184.365 190.83 185.161 191.454 185.785C192.078 186.409 192.873 186.834 193.739 187.006C194.605 187.179 195.502 187.09 196.317 186.753C197.133 186.415 197.83 185.843 198.32 185.109C198.811 184.375 199.072 183.513 199.073 182.63C199.073 182.044 198.957 181.464 198.733 180.922C198.509 180.381 198.18 179.889 197.766 179.474C197.352 179.06 196.86 178.731 196.318 178.507C195.777 178.283 195.197 178.167 194.611 178.167ZM192.558 179.504C192.781 179.23 193.095 179.046 193.443 178.984C193.562 178.957 193.685 178.943 193.808 178.942C194.299 178.942 194.532 179.193 194.33 179.504C194.105 179.777 193.791 179.962 193.443 180.024C193.323 180.051 193.2 180.065 193.078 180.066C192.589 180.066 192.355 179.816 192.558 179.504ZM192.57 180.432C192.826 180.432 192.946 180.563 192.842 180.725C192.725 180.868 192.561 180.964 192.379 180.997C192.316 181.011 192.252 181.019 192.187 181.019C191.933 181.019 191.811 180.887 191.917 180.725C192.034 180.583 192.198 180.487 192.379 180.455C192.442 180.44 192.506 180.432 192.57 180.432ZM194.523 186.216C194.157 186.216 193.793 186.161 193.443 186.053C192.843 185.866 192.303 185.526 191.874 185.067C191.445 184.609 191.142 184.047 190.996 183.436C190.849 182.826 190.863 182.187 191.037 181.584C191.21 180.98 191.538 180.432 191.986 179.993C191.588 180.563 191.36 181.235 191.329 181.929C191.307 182.418 191.39 182.906 191.571 183.361C191.751 183.815 192.027 184.226 192.379 184.566C192.688 184.868 193.049 185.112 193.443 185.289C193.955 185.518 194.51 185.635 195.07 185.633C195.813 185.633 196.542 185.434 197.182 185.057C196.842 185.423 196.431 185.715 195.973 185.914C195.516 186.114 195.022 186.216 194.523 186.216Z" fill="#5DCCFC"/>
<path d="M108.136 192.499C110.991 192.471 111.207 190.728 110.395 189.207C109.288 187.136 106.275 185.478 105.434 189.139C105.364 189.541 105.381 189.953 105.483 190.348C105.585 190.743 105.77 191.112 106.026 191.43C106.282 191.747 106.602 192.007 106.966 192.192C107.33 192.376 107.729 192.481 108.136 192.499Z" fill="#5DCCFC"/>
<path d="M215.918 215.903C216.19 215.957 216.47 215.956 216.742 215.901C217.015 215.845 217.273 215.737 217.503 215.581C217.733 215.425 217.93 215.226 218.082 214.994C218.234 214.761 218.339 214.501 218.39 214.228C218.441 213.955 218.438 213.675 218.38 213.404C218.322 213.132 218.211 212.875 218.053 212.646C217.895 212.418 217.694 212.223 217.46 212.073C217.226 211.923 216.965 211.821 216.692 211.772C215.413 211.352 213.728 212.002 213.485 213.326C213.468 213.657 213.518 213.988 213.632 214.299C213.746 214.61 213.923 214.894 214.15 215.135C214.377 215.376 214.651 215.568 214.955 215.7C215.259 215.832 215.586 215.901 215.918 215.903Z" fill="#5DCCFC"/>
<path d="M130.033 231.248C128.345 231.05 104.472 227.192 113.212 219.657C103.293 224.086 107.032 228.875 122.79 231.586C133.48 233.275 144.316 233.84 155.123 233.272C157.679 233.145 160.223 232.956 162.716 232.699C159.954 232.804 157.451 232.861 155.123 232.878C146.732 232.911 138.349 232.366 130.033 231.248Z" fill="#5DCCFC"/>
<path d="M187.528 216.13C187.655 216.067 187.783 216.005 187.904 215.935C189.816 214.819 191.184 211.335 188.58 210.089C188.163 209.898 187.709 209.804 187.251 209.816C186.793 209.827 186.343 209.943 185.937 210.154C185.411 210.39 184.969 210.763 184.471 211.047C184.335 211.125 184.196 211.196 184.054 211.263C184.019 211.279 183.983 211.295 183.948 211.31C183.858 211.336 183.777 211.362 183.695 211.387C183.474 211.34 183.245 211.353 183.03 211.423C182.99 211.437 182.949 211.448 182.908 211.459C182.928 211.462 182.927 211.467 182.938 211.472C182.92 211.469 182.902 211.467 182.884 211.466L182.861 211.473C182.845 211.468 182.828 211.465 182.81 211.466C182.818 211.464 182.826 211.463 182.834 211.462C182.813 211.454 182.798 211.449 182.775 211.441C182.707 211.388 182.633 211.343 182.555 211.305C182.518 211.269 182.48 211.233 182.444 211.194C182.422 211.171 182.398 211.136 182.373 211.103C182.343 211.051 182.287 210.96 182.25 210.89L182.235 210.84C182.217 210.778 182.198 210.717 182.181 210.656C182.135 210.489 182.11 210.322 182.075 210.154L182.069 210.131C182.069 210.107 182.069 210.081 182.068 210.065C182.049 209.805 182.043 209.544 182.042 209.283C182.143 208.535 182.038 207.774 181.738 207.081C181.508 206.743 181.191 206.472 180.822 206.296C180.452 206.12 180.043 206.045 179.635 206.078C179.227 206.112 178.835 206.253 178.499 206.487C178.164 206.721 177.896 207.04 177.723 207.411C177.45 208.098 177.321 208.834 177.345 209.573C177.324 210.201 177.304 210.829 177.283 211.457C176.97 211.644 176.608 211.733 176.244 211.711C175.88 211.69 175.531 211.56 175.241 211.338C174.537 210.631 174.979 209.434 175.5 208.583C176.021 207.731 176.595 206.648 176.055 205.808C175.378 204.757 173.576 205.331 173.057 206.469C172.698 207.672 172.67 208.949 172.976 210.166C173.118 211.377 173.012 212.788 172.072 213.543C170.698 213.409 169.288 213.29 167.843 213.187C167.319 212.906 166.772 212.671 166.208 212.484C165.155 212.169 163.804 212.286 163.338 211.149C163.146 210.518 163.079 209.855 163.143 209.198C163.207 208.541 163.4 207.903 163.71 207.321C164.329 205.962 165.254 204.754 165.811 203.369C166.419 201.86 166.574 199.652 165.029 198.64C163.906 197.905 162.042 198.398 161.797 199.717C161.801 200.402 161.842 201.087 161.918 201.767C161.81 203.175 160.314 204.083 159.899 205.433C159.221 207.638 161.594 210.233 160.299 212.142C160.117 212.416 159.872 212.643 159.585 212.804C158.942 212.789 158.293 212.777 157.641 212.769C157.356 212.61 157.113 212.386 156.929 212.117C156.745 211.848 156.627 211.539 156.582 211.216C156.483 210.543 156.662 209.779 156.259 209.23C156.022 208.974 155.752 208.752 155.454 208.57C153.84 207.316 154.669 204.815 153.657 203.175C153.089 202.253 151.738 201.691 150.904 202.383C150.415 202.96 150.124 203.68 150.074 204.436C149.903 205.17 149.426 205.994 148.673 205.978C148.406 205.932 148.152 205.829 147.927 205.676C147.703 205.524 147.515 205.325 147.374 205.093C147.091 204.625 146.635 204.286 146.105 204.15C145.251 204.06 144.209 207.347 142.81 204.927C142.476 204.095 142.335 203.198 142.396 202.303C142.334 201.411 141.969 200.388 141.109 200.142C140.054 199.839 139.066 201.004 139.039 202.101C139.144 203.196 139.476 204.257 140.014 205.216C140.722 206.691 140.853 208.376 140.382 209.942C139.932 210.97 139.128 211.801 138.118 212.287C136.373 213.067 136.606 211.198 135.227 211.031C134.527 210.99 133.836 211.197 133.275 211.617C132.445 212.174 131.778 212.944 130.964 213.523C127.8 215.776 126.982 212.125 124.732 210.771C122.566 209.466 121.493 209.94 122.623 212.583C123.058 213.717 123.097 214.966 122.734 216.125C116.527 217.773 112.78 219.9 112.78 222.222C112.78 227.453 131.741 231.695 155.123 231.695C178.503 231.695 197.465 227.453 197.465 222.222C197.466 219.902 193.726 217.777 187.528 216.13ZM182.948 211.476C182.975 211.492 182.973 211.507 182.894 211.484C182.911 211.48 182.929 211.477 182.948 211.476ZM155.123 229.672C136.95 229.672 122.18 226.413 121.836 222.366C123.212 222.767 124.545 223.305 125.814 223.972C129.522 225.747 134.497 226.113 138.991 226.443C142.772 226.721 142.835 226.471 153.815 226.443C161.104 226.425 160.619 226.536 163.698 226.443C168.955 226.388 174.194 225.837 179.347 224.796C183.342 223.923 186.773 222.77 188.359 221.769C188.401 221.917 188.424 222.069 188.426 222.222C188.426 226.336 173.512 229.672 155.123 229.672Z" fill="#5DCCFC"/>
<path d="M182.884 211.466L182.908 211.459C182.883 211.457 182.859 211.458 182.834 211.462L182.842 211.465C182.857 211.465 182.869 211.465 182.884 211.466Z" fill="#5DCCFC"/>
</svg>
