<svg width="300" height="300" viewBox="0 0 300 300" fill="none" xmlns="http://www.w3.org/2000/svg">
<path d="M242.425 46.6C242.425 46.6 212.107 21.838 172.675 32.8C133.243 43.762 116.731 77.764 94.1233 101.122C82.2793 113.35 64.7833 117.856 50.7133 127.27C5.71332 157.372 12.3853 225.07 47.0773 250.57C77.1133 272.674 114.643 274.984 163.477 258.682C212.311 242.38 247.255 232.588 277.537 185.89C307.819 139.192 279.775 80.206 242.425 46.6Z" fill="#B1E4F9"/>
<path opacity="0.7" d="M242.425 46.6C242.425 46.6 212.107 21.838 172.675 32.8C133.243 43.762 116.731 77.764 94.1233 101.122C82.2793 113.35 64.7833 117.856 50.7133 127.27C5.71332 157.372 12.3853 225.07 47.0773 250.57C77.1133 272.674 114.643 274.984 163.477 258.682C212.311 242.38 247.255 232.588 277.537 185.89C307.819 139.192 279.775 80.206 242.425 46.6Z" fill="white"/>
<path d="M121.822 83.6256C122.187 83.8207 122.597 83.9153 123.011 83.8999C123.424 83.8845 123.826 83.7595 124.175 83.5378C124.525 83.316 124.809 83.0055 124.999 82.6379C125.188 82.2703 125.277 81.8589 125.256 81.4458C125.235 81.0382 125.107 80.6433 124.886 80.3004C124.665 79.9575 124.358 79.6784 123.995 79.4912C123.633 79.3039 123.228 79.2149 122.82 79.233C122.412 79.2511 122.016 79.3758 121.672 79.5945C121.327 79.8132 121.046 80.1183 120.856 80.4795C120.666 80.8407 120.575 81.2454 120.59 81.6532C120.605 82.061 120.727 82.4576 120.943 82.8037C121.159 83.1498 121.462 83.4331 121.822 83.6256Z" fill="#B0D3F4"/>
<path d="M122.836 76.624C123.002 76.731 123.189 76.8022 123.385 76.8332C123.58 76.8641 123.78 76.8541 123.972 76.8038C124.163 76.7535 124.342 76.6639 124.497 76.5408C124.652 76.4177 124.78 76.2638 124.873 76.0887C124.965 75.9136 125.02 75.7212 125.035 75.5237C125.049 75.3262 125.022 75.1279 124.956 74.9414C124.889 74.7549 124.785 74.5841 124.649 74.44C124.513 74.2959 124.349 74.1816 124.167 74.1043C123.874 73.988 123.553 73.9684 123.248 74.0483C122.944 74.1282 122.673 74.3034 122.476 74.5482C122.249 74.8712 122.159 75.2713 122.226 75.6605C122.294 76.0498 122.513 76.3963 122.836 76.624Z" fill="#B0D3F4"/>
<path d="M106.109 84.6817C106.356 84.7303 106.609 84.7296 106.855 84.6798C107.1 84.6299 107.334 84.5318 107.542 84.3911C107.749 84.2505 107.927 84.07 108.065 83.8603C108.202 83.6505 108.297 83.4156 108.343 83.169C108.389 82.9225 108.386 82.6692 108.334 82.4239C108.282 82.1785 108.181 81.946 108.039 81.7396C107.896 81.5333 107.714 81.3573 107.503 81.2217C107.292 81.0862 107.056 80.9938 106.809 80.95C106.533 80.8026 106.227 80.7223 105.914 80.7156C105.602 80.7088 105.292 80.7757 105.01 80.911C104.728 81.0462 104.482 81.246 104.292 81.494C104.101 81.7421 103.972 82.0315 103.915 82.3388C103.857 82.6461 103.873 82.9626 103.96 83.2628C104.048 83.5629 104.205 83.8382 104.418 84.0664C104.632 84.2945 104.897 84.4691 105.19 84.5761C105.484 84.683 105.799 84.7191 106.109 84.6817Z" fill="#B0D3F4"/>
<path d="M98.1021 98.9962C98.2301 98.6642 98.2284 98.2961 98.0974 97.9652C97.9663 97.6343 97.7155 97.3649 97.3948 97.2106C97.0741 97.0563 96.7071 97.0284 96.3667 97.1324C96.0264 97.2365 95.7377 97.4648 95.5581 97.7721C95.4619 97.9599 95.4068 98.166 95.3966 98.3768C95.3864 98.5876 95.4214 98.7981 95.4991 98.9943C95.5768 99.1904 95.6954 99.3678 95.8472 99.5144C95.9989 99.6611 96.1802 99.7736 96.3789 99.8446C96.7201 99.9338 97.0821 99.8972 97.3985 99.7414C97.715 99.5856 97.9647 99.3211 98.1021 98.9962Z" fill="#5DCCFC"/>
<path d="M91.8318 78.6882C91.3336 78.5887 90.8167 78.6521 90.3574 78.8689C89.898 79.0857 89.5205 79.4444 89.2807 79.8922C89.0408 80.3399 88.9513 80.8529 89.0253 81.3555C89.0993 81.858 89.3329 82.3234 89.6917 82.683C90.0505 83.0426 90.5154 83.2773 91.0177 83.3524C91.5201 83.4276 92.0333 83.3392 92.4816 83.1003C92.9299 82.8615 93.2895 82.4848 93.5073 82.026C93.7252 81.5671 93.7897 81.0503 93.6913 80.552C93.5935 80.0953 93.366 79.6766 93.0362 79.346C92.7064 79.0155 92.2882 78.787 91.8318 78.6882Z" fill="#B0D3F4"/>
<path d="M186.001 90.5502C188.58 90.5246 188.774 88.9497 188.041 87.5764C187.042 85.7051 184.319 84.2079 183.559 87.5149C183.497 87.878 183.512 88.2503 183.604 88.6071C183.696 88.9638 183.864 89.2968 184.095 89.584C184.326 89.8711 184.615 90.1057 184.944 90.2723C185.272 90.439 185.633 90.5337 186.001 90.5502Z" fill="#5DCCFC"/>
<path d="M172.789 97.3376C173.137 97.5546 173.542 97.6627 173.952 97.648C174.363 97.6332 174.759 97.4964 175.091 97.2549C175.422 97.0135 175.675 96.6784 175.815 96.2927C175.955 95.9071 175.977 95.4883 175.877 95.0902C175.778 94.6921 175.562 94.3328 175.257 94.0582C174.952 93.7837 174.572 93.6065 174.165 93.5494C173.759 93.4922 173.345 93.5577 172.976 93.7375C172.607 93.9173 172.3 94.2031 172.095 94.5584C171.846 95.0254 171.78 95.568 171.908 96.0814C172.036 96.5947 172.35 97.0423 172.789 97.3376Z" fill="#5DCCFC"/>
<path d="M197.692 84.9404C197.929 85.003 198.178 85.0019 198.414 84.9374C198.65 84.8728 198.865 84.747 199.037 84.5726C199.209 84.3983 199.332 84.1816 199.393 83.9446C199.454 83.7075 199.452 83.4584 199.386 83.2226C199.32 82.9867 199.193 82.7724 199.018 82.6014C198.843 82.4304 198.625 82.3087 198.388 82.2487C198.151 82.1887 197.902 82.1924 197.666 82.2596C197.431 82.3267 197.217 82.4549 197.047 82.6311C196.898 82.813 196.795 83.0281 196.747 83.2583C196.698 83.4884 196.706 83.7268 196.769 83.9533C196.833 84.1797 196.949 84.3877 197.11 84.5595C197.271 84.7313 197.47 84.8619 197.692 84.9404Z" fill="#B0D3F4"/>
<path d="M200.004 104.29C199.758 104.354 199.539 104.495 199.379 104.693C199.219 104.89 199.126 105.134 199.114 105.387C199.101 105.641 199.17 105.892 199.311 106.104C199.451 106.316 199.655 106.478 199.894 106.566C200.07 106.631 200.258 106.653 200.445 106.632C200.631 106.61 200.809 106.545 200.966 106.441C201.122 106.338 201.252 106.199 201.345 106.036C201.437 105.873 201.49 105.69 201.5 105.503C201.509 105.316 201.473 105.129 201.397 104.958C201.32 104.786 201.205 104.636 201.059 104.517C200.913 104.399 200.742 104.317 200.558 104.278C200.375 104.238 200.185 104.242 200.004 104.29Z" fill="#5DCCFC"/>
<path d="M206.367 80.0595C205.703 80.0272 205.049 80.2321 204.522 80.6376C203.995 81.0431 203.629 81.6227 203.49 82.2729C203.27 83.8415 204.645 85.3278 204.362 86.8862C204.055 88.5734 202.106 89.2871 200.724 90.3012C198.985 91.5765 198.393 93.4748 197.137 95.1062C196.046 96.5236 194.738 97.7743 193.702 99.292C192.631 101.077 191.362 102.734 189.918 104.233C188.573 105.475 186.874 106.419 185.994 108.024C184.747 110.296 185.324 113.569 183.273 115.153C181.998 116.139 180.119 116.057 178.875 117.082C177.685 118.063 177.254 119.917 175.811 120.459C175.298 120.597 174.759 120.608 174.24 120.49C173.722 120.373 173.24 120.131 172.836 119.786C171.981 119.159 171.284 118.333 170.411 117.731C169.822 117.278 169.092 117.048 168.35 117.082C166.884 117.24 167.105 119.226 165.265 118.374C164.2 117.844 163.359 116.951 162.896 115.855C162.419 114.187 162.582 112.4 163.353 110.846C163.937 109.836 164.305 108.716 164.431 107.556C164.418 106.392 163.386 105.142 162.263 105.448C161.347 105.697 160.945 106.777 160.867 107.723C160.919 108.673 160.757 109.622 160.391 110.501C158.873 113.047 157.814 109.547 156.906 109.629C156.342 109.767 155.855 110.119 155.547 110.612C155.395 110.856 155.192 111.064 154.952 111.223C154.712 111.382 154.441 111.488 154.157 111.533C153.358 111.539 152.864 110.658 152.693 109.877C152.65 109.075 152.352 108.307 151.841 107.687C150.966 106.942 149.525 107.519 148.909 108.489C147.813 110.215 148.657 112.879 146.927 114.187C146.609 114.376 146.318 114.608 146.064 114.876C145.629 115.452 145.808 116.265 145.693 116.978C145.638 117.417 145.45 117.828 145.154 118.157C144.858 118.485 144.469 118.716 144.038 118.817C143.608 118.918 143.157 118.885 142.746 118.722C142.334 118.56 141.983 118.275 141.738 117.907C140.39 115.864 142.944 113.145 142.256 110.796C141.835 109.359 140.261 108.374 140.166 106.88C140.257 106.159 140.309 105.433 140.323 104.707C140.082 103.303 138.112 102.755 136.91 103.519C135.256 104.57 135.39 106.914 136.013 108.524C136.585 110.001 137.549 111.296 138.186 112.746C138.508 113.368 138.703 114.047 138.762 114.745C138.82 115.442 138.741 116.145 138.527 116.811C138.017 118.011 136.586 117.868 135.465 118.187C134.411 118.487 133.473 119.099 132.444 119.475C131.945 119.704 131.397 119.807 130.849 119.775C130.301 119.744 129.769 119.579 129.299 119.295C128.24 118.496 128.146 116.949 128.317 115.633C128.488 114.318 128.817 112.924 128.283 111.71C127.749 110.496 125.846 109.862 125.113 110.967C124.528 111.85 125.122 113.007 125.662 113.918C126.203 114.829 126.655 116.104 125.898 116.844C125.562 117.087 125.16 117.22 124.745 117.226C124.331 117.231 123.925 117.109 123.583 116.875C122.43 116.069 121.385 115.118 120.473 114.047C119.448 113.083 118.007 112.303 116.674 112.752C116.05 112.962 115.536 113.417 114.923 113.656C112.828 114.474 110.731 112.582 109.271 110.87C107.535 108.835 105.799 106.8 104.063 104.765C103.277 103.842 102.324 102.84 101.112 102.857C99.5551 102.88 98.5235 104.757 98.9068 106.265C99.1621 107.003 99.5782 107.674 100.125 108.23C100.672 108.787 101.335 109.215 102.068 109.483C103.489 110.117 105.04 110.423 106.462 111.056C110.325 112.775 112.534 116.764 114.568 120.241C114.884 120.859 114.982 121.565 114.849 122.246C114.824 122.237 114.799 122.23 114.774 122.222C111.804 128.987 109.711 136.891 108.991 147.367C104.82 208.066 193.737 208.066 189.565 147.367C189.161 139.797 187.625 132.331 185.008 125.217C184.842 124.511 184.711 123.913 184.635 123.62C183.692 119.947 185.789 118.464 187.149 115.493C187.885 113.886 187.937 112.052 188.476 110.368C189.149 108.589 190.094 106.924 191.276 105.433C193.762 101.946 196.248 98.458 198.733 94.9703C200.964 91.841 204.967 89.7984 208.102 87.5946C209.145 87.0205 209.957 86.1008 210.396 84.9935C210.968 82.8231 208.482 80.1423 206.367 80.0595ZM126.277 177.93C121.238 171.262 116.611 164.48 115.431 156.018C114.385 148.519 114.414 139.282 117.588 132.275C118.906 129.363 123.187 131.892 121.878 134.783C120.316 138.233 120.214 142.241 120.035 145.964C119.781 149.513 119.944 153.08 120.521 156.591C121.893 163.818 126.227 169.677 130.568 175.422C132.498 177.975 128.181 180.449 126.277 177.93ZM138.477 183.339C138.146 183.896 137.614 184.304 136.992 184.481C136.345 184.642 135.661 184.553 135.077 184.231L134.166 183.773C133.605 183.446 133.196 182.913 133.024 182.288C132.937 181.968 132.914 181.634 132.957 181.305C133 180.977 133.108 180.66 133.274 180.373C133.605 179.817 134.136 179.408 134.759 179.232C135.406 179.07 136.09 179.16 136.674 179.482L137.585 179.94C138.146 180.267 138.555 180.8 138.727 181.425C138.814 181.745 138.837 182.079 138.794 182.407C138.751 182.736 138.643 183.053 138.477 183.339Z" fill="#5DCCFC"/>
<path d="M152.734 199.811C134.291 199.811 119.335 203.156 119.335 207.281C119.335 211.408 134.291 214.753 152.734 214.753C171.176 214.753 186.133 211.408 186.133 207.281C186.133 203.156 171.176 199.811 152.734 199.811ZM152.734 213.158C138.229 213.158 126.465 210.526 126.465 207.281C126.465 204.037 138.229 201.406 152.734 201.406C167.239 201.406 179.002 204.037 179.002 207.281C179.002 210.526 167.239 213.158 152.734 213.158Z" fill="#5DCCFC"/>
<path d="M120.009 223.323C117.711 223.053 85.1952 217.798 97.0983 207.536C83.5883 213.568 88.683 220.09 110.146 223.784C124.704 226.085 139.463 226.854 154.181 226.081C157.665 225.907 161.126 225.65 164.523 225.299C160.76 225.442 157.353 225.52 154.181 225.542C141.471 225.632 132.573 224.798 120.009 223.323Z" fill="#5DCCFC"/>
<path d="M154.181 198.13C122.336 198.13 96.5099 203.907 96.5099 211.03C96.5099 218.153 122.336 223.93 154.181 223.93C186.027 223.93 211.854 218.153 211.854 211.03C211.854 203.907 186.027 198.13 154.181 198.13ZM154.181 221.177C129.136 221.177 108.821 216.631 108.821 211.03C108.821 205.427 129.136 200.884 154.181 200.884C179.227 200.884 199.542 205.427 199.542 211.03C199.542 216.631 179.227 221.177 154.181 221.177Z" fill="#5DCCFC"/>
<path d="M190.882 207.116C200.841 213.921 173.632 217.403 171.709 217.58C165.183 218.189 159.839 218.633 154.181 218.869C148.451 219.106 142.397 219.13 134.463 218.894C140.899 219.422 147.619 219.634 154.181 219.583C162.803 219.551 171.413 218.985 179.965 217.889C197.923 215.44 202.187 211.114 190.882 207.116Z" fill="#5DCCFC"/>
</svg>
