<svg width="219" height="182" viewBox="0 0 219 182" fill="none" xmlns="http://www.w3.org/2000/svg">
<path d="M0.0251884 101.231C-0.922812 79.5049 25.0512 59.6869 50.4612 51.6649C78.5772 42.7849 86.5692 32.0929 106.297 16.9129C157.297 -22.3091 223.087 12.659 218.803 60.9289C216.925 82.0309 209.167 107.513 194.407 125.399C173.461 150.815 155.845 141.599 119.263 137.207C93.2712 134.093 74.3652 145.769 49.3632 143.921C17.4792 141.569 0.967188 122.285 0.0251884 101.231Z" fill="#5DCCFC"/>
<path opacity="0.9" d="M0.0251884 101.231C-0.922812 79.5049 25.0512 59.6869 50.4612 51.6649C78.5772 42.7849 86.5692 32.0929 106.297 16.9129C157.297 -22.3091 223.087 12.659 218.803 60.9289C216.925 82.0309 209.167 107.513 194.407 125.399C173.461 150.815 155.845 141.599 119.263 137.207C93.2712 134.093 74.3652 145.769 49.3632 143.921C17.4792 141.569 0.967188 122.285 0.0251884 101.231Z" fill="white"/>
<path fill-rule="evenodd" clip-rule="evenodd" d="M130.759 145.45C128.583 113.774 110.734 111.45 98.5196 76.8309C86.3064 111.45 68.4575 113.774 66.2811 145.45C62.9433 194.024 134.097 194.024 130.759 145.45ZM85.6905 120.283C83.3918 123.367 81.5154 126.745 80.1113 130.326C77.6701 136.64 76.6862 143.423 77.2332 150.171C77.6903 155.712 79.0185 163.354 84.4183 166.249C87.0721 167.671 84.7098 171.703 82.0603 170.283C78.3337 168.285 76.0803 164.623 74.6801 160.75C72.1519 153.758 71.9132 145.875 73.0612 138.59C74.2401 131.116 77.1869 124.031 81.6564 117.925C81.9787 117.401 82.4909 117.021 83.0863 116.865C83.6816 116.709 84.3142 116.789 84.8524 117.087C85.3841 117.403 85.7701 117.915 85.927 118.513C86.0838 119.112 85.9989 119.747 85.6905 120.283ZM95.1073 174.484C94.9218 175.059 94.5424 175.552 94.0339 175.88C93.7742 176.048 93.4744 176.143 93.1654 176.157C92.8567 176.226 92.535 176.212 92.2338 176.115C91.4348 175.843 90.6357 175.57 89.8367 175.298C89.4468 175.191 89.0916 174.983 88.8059 174.697L88.4406 174.225C88.2311 173.867 88.121 173.46 88.1217 173.046L88.2051 172.425C88.3907 171.849 88.7701 171.356 89.2787 171.029C89.5384 170.861 89.8382 170.765 90.1472 170.751C90.4558 170.682 90.7774 170.696 91.0786 170.793L93.4758 171.61C93.8657 171.718 94.2209 171.925 94.5066 172.211L94.8719 172.684C95.0813 173.041 95.1914 173.448 95.1908 173.863C95.163 174.07 95.1352 174.277 95.1073 174.484Z" fill="#5DCCFC"/>
</svg>
