<svg width="289" height="201" viewBox="0 0 289 201" fill="none" xmlns="http://www.w3.org/2000/svg">
<path d="M269.65 23.243C269.65 23.243 269.65 18.1926 263.107 11.1173C256.564 4.04192 252.357 0 252.357 0C252.357 0 249.082 11.6255 255.162 18.7008C261.242 25.7762 269.65 32.3512 269.65 32.3512V23.243Z" fill="#5DCCFC"/>
<path d="M260.155 54.808C260.155 54.808 260.155 49.7576 253.612 42.6823C247.07 35.607 242.862 31.565 242.862 31.565C242.862 31.565 239.587 43.1905 245.667 50.2738C251.747 57.3571 260.155 63.9242 260.155 63.9242V54.808Z" fill="#5DCCFC"/>
<path d="M269.238 31.8509C269.238 31.8509 269.73 26.8244 276.934 20.5352C284.137 14.246 288.683 10.7123 288.683 10.7123C288.683 10.7123 290.805 22.6236 284.071 28.9764C277.338 35.3291 268.328 40.8877 268.328 40.8877L269.238 31.8509Z" fill="#5DCCFC"/>
<path d="M257.769 69.1335C257.769 69.1335 258.745 64.1943 266.514 58.7548C274.283 53.3153 279.181 50.3136 279.181 50.3136C279.181 50.3136 280.128 62.4235 272.815 67.9662C265.501 73.509 256.006 78.0274 256.006 78.0274L257.769 69.1335Z" fill="#5DCCFC"/>
<path d="M259.92 109.775C259.92 109.775 259.92 104.725 266.47 97.6492C273.02 90.5739 277.213 86.532 277.213 86.532C277.213 86.532 280.488 98.1495 274.445 105.217C268.401 112.284 259.95 118.867 259.95 118.867L259.92 109.775Z" fill="#5DCCFC"/>
<path d="M259.817 119.701C259.817 119.701 260.478 114.698 254.934 106.686C249.39 98.6737 245.748 94.0283 245.748 94.0283C245.748 94.0283 240.983 105.034 246.071 112.967C251.16 120.9 258.62 128.706 258.62 128.706L259.817 119.701Z" fill="#5DCCFC"/>
<path d="M253.363 149.098C253.363 149.098 253.363 144.048 259.905 136.973C266.448 129.897 270.656 125.855 270.656 125.855C270.656 125.855 273.923 137.481 267.851 144.556C261.778 151.632 253.363 158.207 253.363 158.207V149.098Z" fill="#5DCCFC"/>
<path d="M257.732 175.756C257.732 175.756 256.55 170.864 261.22 162.256C265.89 153.649 269.018 148.55 269.018 148.55C269.018 148.55 274.893 158.874 270.685 167.41C266.478 175.947 259.861 184.578 259.861 184.578L257.732 175.756Z" fill="#5DCCFC"/>
<path d="M270.244 21.9486C269.911 27.2103 269.313 32.4485 268.453 37.6398C265.861 52.0922 259.399 61.4625 256.814 74.4697C254.229 87.4769 261.653 104.343 259.663 121.107C257.673 137.87 251.637 147.2 253.363 158.389C255.088 169.578 264.377 200.476 264.377 200.476" stroke="#263238" stroke-linecap="round" stroke-linejoin="round"/>
<path d="M269.172 35.21L276.229 29.3575" stroke="#263238" stroke-linecap="round" stroke-linejoin="round"/>
<path d="M269.503 28.476L266.551 22.7983" stroke="#263238" stroke-linecap="round" stroke-linejoin="round"/>
<path d="M257.203 73.8742C257.203 73.8742 263.078 69.1097 269.172 64.2975" stroke="#263238" stroke-linecap="round" stroke-linejoin="round"/>
<path d="M260.155 63.9243C260.155 63.9243 255.235 53.4979 249.662 46.5814" stroke="#263238" stroke-linecap="round" stroke-linejoin="round"/>
<path d="M260.155 116.969C263.525 110.252 267.779 104.1 272.785 98.7053" stroke="#263238" stroke-linecap="round" stroke-linejoin="round"/>
<path d="M259.024 124.061C257.232 119.502 255.093 115.111 252.629 110.934C249.185 105.439 248.693 104.733 248.693 104.733" stroke="#263238" stroke-linecap="round" stroke-linejoin="round"/>
<path d="M253.363 158.421C254.857 154.404 256.634 150.518 258.679 146.795C260.72 143.324 263.024 140.041 265.567 136.981" stroke="#263238" stroke-linecap="round" stroke-linejoin="round"/>
<path d="M259.861 184.554C259.861 184.554 259.171 178.504 261.631 173.366C264.091 168.228 266.881 161.454 268.027 158.818" stroke="#263238" stroke-linecap="round" stroke-linejoin="round"/>
<path d="M216.251 90.7726C216.251 90.7726 215.744 87.5962 219.137 82.3949C222.529 77.1936 224.762 74.1602 224.762 74.1602C224.762 74.1602 227.978 81.0688 224.879 86.2145C222.58 89.8647 220.001 93.2994 217.169 96.4821L216.251 90.7726Z" fill="#5DCCFC"/>
<path d="M225.378 109.449C225.378 109.449 224.872 106.273 228.264 101.072C231.657 95.8705 233.889 92.837 233.889 92.837C233.889 92.837 237.105 99.7456 234.006 104.891C231.704 108.539 229.123 111.971 226.289 115.151L225.378 109.449Z" fill="#5DCCFC"/>
<path d="M217.375 96.1167C217.375 96.1167 216.56 93.0277 211.412 89.9307C206.265 86.8338 203.041 85.1662 203.041 85.1662C203.041 85.1662 202.916 92.9006 207.77 96.0849C211.309 98.2937 215.013 100.177 218.843 101.715L217.375 96.1167Z" fill="#5DCCFC"/>
<path d="M228.308 118.153C228.308 118.153 227.2 115.167 221.78 112.666C216.361 110.164 212.969 108.862 212.969 108.862C212.969 108.862 213.593 116.565 218.733 119.185C222.464 120.978 226.328 122.428 230.284 123.521L228.308 118.153Z" fill="#5DCCFC"/>
<path d="M231.04 143.889C231.04 143.889 230.533 140.713 225.716 137.052C220.899 133.391 217.859 131.342 217.859 131.342C217.859 131.342 216.978 139.013 221.494 142.738C224.797 145.335 228.295 147.63 231.95 149.599L231.04 143.889Z" fill="#5DCCFC"/>
<path d="M232.105 150.099C232.105 150.099 231.187 147.042 233.86 141.364C236.533 135.686 238.346 132.351 238.346 132.351C238.346 132.351 242.436 138.704 240.043 144.262C238.245 148.226 236.142 152.019 233.757 155.602L232.105 150.099Z" fill="#5DCCFC"/>
<path d="M240.314 175.661C240.314 175.661 240.652 172.484 245.263 168.514C249.875 164.543 252.812 162.328 252.812 162.328C252.812 162.328 254.097 169.935 249.779 173.937C246.62 176.74 243.25 179.253 239.705 181.45L240.314 175.661Z" fill="#5DCCFC"/>
<path d="M239.103 167.775C239.103 167.775 238.596 164.599 233.779 160.938C228.962 157.277 225.922 155.229 225.922 155.229C225.922 155.229 225.041 162.9 229.557 166.624C232.859 169.229 236.357 171.532 240.013 173.509L239.103 167.775Z" fill="#5DCCFC"/>
<path d="M239.037 185.007C239.037 185.007 239.286 181.831 235.49 176.931C231.694 172.032 229.226 169.26 229.226 169.26C229.226 169.26 226.575 176.407 230.071 181.283C232.658 184.697 235.505 187.871 238.581 190.772L239.037 185.007Z" fill="#5DCCFC"/>
<path d="M215.752 90.0259C216.485 93.288 217.385 96.5036 218.447 99.6583C221.523 108.393 226.524 113.507 229.461 121.385C232.398 129.262 229.424 140.689 232.354 150.964C235.284 161.24 240.006 166.386 240.05 173.604C240.094 180.822 237.649 200.349 237.649 200.349" stroke="#263238" stroke-linecap="round" stroke-linejoin="round"/>
<path d="M217.749 98.2212L212.741 95.3783" stroke="#263238" stroke-linecap="round" stroke-linejoin="round"/>
<path d="M216.868 94.0282L218.153 90.1292" stroke="#263238" stroke-linecap="round" stroke-linejoin="round"/>
<path d="M229.138 121.099C229.138 121.099 224.96 118.788 220.672 116.493" stroke="#263238" stroke-linecap="round" stroke-linejoin="round"/>
<path d="M226.289 115.151C226.289 115.151 228.323 108.004 231.128 103.041" stroke="#263238" stroke-linecap="round" stroke-linejoin="round"/>
<path d="M231.613 148.423C228.826 144.608 225.541 141.251 221.861 138.458" stroke="#263238" stroke-linecap="round" stroke-linejoin="round"/>
<path d="M233.045 152.743C233.711 149.674 234.613 146.67 235.74 143.762C237.348 139.911 237.583 139.402 237.583 139.402" stroke="#263238" stroke-linecap="round" stroke-linejoin="round"/>
<path d="M239.808 179.067C239.808 179.067 243.127 174.668 245.19 173.024C246.436 172.031 247.608 170.931 248.693 169.737" stroke="#263238" stroke-linecap="round" stroke-linejoin="round"/>
<path d="M240.035 173.604C238.692 171.261 237.188 169.031 235.534 166.934C233.903 165.012 232.13 163.238 230.232 161.629" stroke="#263238" stroke-linecap="round" stroke-linejoin="round"/>
<path d="M238.581 190.772C238.422 188.332 237.662 185.982 236.378 183.967C234.322 181.029 231.899 177.13 230.908 175.597" stroke="#263238" stroke-linecap="round" stroke-linejoin="round"/>
<path d="M19.3406 23.243C19.3406 23.243 19.3406 18.1926 25.8832 11.1173C32.4259 4.04192 36.6334 0 36.6334 0C36.6334 0 39.9084 11.6255 33.8357 18.7008C27.763 25.7762 19.3406 32.3512 19.3406 32.3512V23.243Z" fill="#5DCCFC"/>
<path d="M28.8425 54.808C28.8425 54.808 28.8425 49.7576 35.3852 42.6823C41.9278 35.607 46.1354 31.565 46.1354 31.565C46.1354 31.565 49.403 43.1905 43.3303 50.2738C37.2576 57.3571 28.8425 63.9242 28.8425 63.9242V54.808Z" fill="#5DCCFC"/>
<path d="M19.7518 31.8509C19.7518 31.8509 19.2598 26.8244 12.0636 20.5352C4.86745 14.246 0.31477 10.7123 0.31477 10.7123C0.31477 10.7123 -1.80002 22.6236 4.93353 28.9764C11.6671 35.3291 20.6696 40.8877 20.6696 40.8877L19.7518 31.8509Z" fill="#5DCCFC"/>
<path d="M31.229 69.1335C31.229 69.1335 30.245 64.1943 22.4761 58.7548C14.7072 53.3153 9.80938 50.3136 9.80938 50.3136C9.80938 50.3136 8.86947 62.4235 16.1758 67.9662C23.4821 73.509 32.9913 78.0274 32.9913 78.0274L31.229 69.1335Z" fill="#5DCCFC"/>
<path d="M29.0701 109.775C29.0701 109.775 29.0701 104.725 22.5275 97.6492C15.9848 90.5739 11.7773 86.532 11.7773 86.532C11.7773 86.532 8.50231 98.1495 14.5823 105.217C20.6624 112.284 29.0701 118.875 29.0701 118.875V109.775Z" fill="#5DCCFC"/>
<path d="M29.1875 119.701C29.1875 119.701 28.5193 114.698 34.0706 106.686C39.622 98.6737 43.2494 94.0283 43.2494 94.0283C43.2494 94.0283 48.015 105.034 42.9337 112.967C37.8523 120.9 30.3844 128.706 30.3844 128.706L29.1875 119.701Z" fill="#5DCCFC"/>
<path d="M35.6347 149.098C35.6347 149.098 35.6347 144.048 29.0847 136.973C22.5348 129.897 18.3419 125.855 18.3419 125.855C18.3419 125.855 15.0669 137.473 21.1102 144.548C27.1535 151.624 35.6053 158.199 35.6053 158.199L35.6347 149.098Z" fill="#5DCCFC"/>
<path d="M31.2656 175.756C31.2656 175.756 32.4478 170.864 27.7703 162.256C23.0928 153.649 19.9794 148.55 19.9794 148.55C19.9794 148.55 14.105 158.874 18.3125 167.41C22.5201 175.947 29.1288 184.578 29.1288 184.578L31.2656 175.756Z" fill="#5DCCFC"/>
<path d="M18.7531 21.9486C19.0825 27.2107 19.6806 32.4491 20.5448 37.6398C23.1295 52.0922 29.5987 61.4625 32.1834 74.4697C34.7682 87.4769 27.3444 104.343 29.3343 121.099C31.3243 137.854 37.3529 147.192 35.6347 158.381C33.9164 169.57 24.6201 200.468 24.6201 200.468" stroke="#263238" stroke-linecap="round" stroke-linejoin="round"/>
<path d="M19.8179 35.21L12.7686 29.3575" stroke="#263238" stroke-linecap="round" stroke-linejoin="round"/>
<path d="M19.4948 28.476L22.4466 22.7983" stroke="#263238" stroke-linecap="round" stroke-linejoin="round"/>
<path d="M31.7869 73.8742C31.7869 73.8742 25.9125 69.1097 19.8177 64.2975" stroke="#263238" stroke-linecap="round" stroke-linejoin="round"/>
<path d="M28.8425 63.9243C28.8425 63.9243 33.755 53.4979 39.3357 46.5814" stroke="#263238" stroke-linecap="round" stroke-linejoin="round"/>
<path d="M28.8351 116.969C25.4665 110.253 21.2146 104.101 16.2124 98.7053" stroke="#263238" stroke-linecap="round" stroke-linejoin="round"/>
<path d="M29.988 124.061C31.7805 119.502 33.9198 115.111 36.3838 110.934C39.8277 105.439 40.3197 104.733 40.3197 104.733" stroke="#263238" stroke-linecap="round" stroke-linejoin="round"/>
<path d="M35.6348 158.421C34.1365 154.405 32.3568 150.518 30.3111 146.795C28.2737 143.323 25.9723 140.04 23.4307 136.981" stroke="#263238" stroke-linecap="round" stroke-linejoin="round"/>
<path d="M29.1288 184.554C29.1288 184.554 29.819 178.504 27.3665 173.366C24.9139 168.228 22.1162 161.454 20.9707 158.818" stroke="#263238" stroke-linecap="round" stroke-linejoin="round"/>
<path d="M72.7391 90.7726C72.7391 90.7726 73.2458 87.5962 69.8533 82.3949C66.4609 77.1936 64.2286 74.1602 64.2286 74.1602C64.2286 74.1602 61.0123 81.0688 64.1111 86.2145C66.4127 89.8651 68.9944 93.2997 71.8286 96.4821L72.7391 90.7726Z" fill="#5DCCFC"/>
<path d="M63.619 109.449C63.619 109.449 64.1257 106.273 60.7332 101.072C57.3407 95.8705 55.1085 92.837 55.1085 92.837C55.1085 92.837 51.8922 99.7456 54.991 104.891C57.2916 108.538 59.8706 111.97 62.7011 115.151L63.619 109.449Z" fill="#5DCCFC"/>
<path d="M71.6229 96.1167C71.6229 96.1167 72.4306 93.0277 77.5781 89.9307C82.7256 86.8338 85.9492 85.1662 85.9492 85.1662C85.9492 85.1662 86.0813 92.9006 81.2202 96.0849C77.6836 98.2929 73.982 100.176 70.1543 101.715L71.6229 96.1167Z" fill="#5DCCFC"/>
<path d="M60.6818 118.153C60.6818 118.153 61.7906 115.167 67.2098 112.666C72.6289 110.164 76.0214 108.862 76.0214 108.862C76.0214 108.862 75.3972 116.565 70.2571 119.185C66.5262 120.978 62.6624 122.428 58.7065 123.521L60.6818 118.153Z" fill="#5DCCFC"/>
<path d="M57.9575 143.889C57.9575 143.889 58.4642 140.713 63.2739 137.052C68.0836 133.391 71.1309 131.342 71.1309 131.342C71.1309 131.342 72.0194 139.013 67.4594 142.738C64.1573 145.337 60.6596 147.632 57.0029 149.599L57.9575 143.889Z" fill="#5DCCFC"/>
<path d="M56.8928 150.099C56.8928 150.099 57.8107 147.042 55.1378 141.364C52.4649 135.686 50.6512 132.351 50.6512 132.351C50.6512 132.351 46.5538 138.704 48.9476 144.262C50.7493 148.225 52.8543 152.018 55.2406 155.602L56.8928 150.099Z" fill="#5DCCFC"/>
<path d="M48.6759 175.661C48.6759 175.661 48.3381 172.484 43.7267 168.514C39.1152 164.543 36.1854 162.328 36.1854 162.328C36.1854 162.328 34.893 169.935 39.2107 173.937C42.3698 176.74 45.7397 179.253 49.2853 181.45L48.6759 175.661Z" fill="#5DCCFC"/>
<path d="M49.8948 167.775C49.8948 167.775 50.4015 164.599 55.2112 160.938C60.0209 157.277 63.0682 155.229 63.0682 155.229C63.0682 155.229 63.9567 162.9 59.4334 166.624C56.1439 169.229 52.6585 171.532 49.0137 173.509L49.8948 167.775Z" fill="#5DCCFC"/>
<path d="M49.9609 185.007C49.9609 185.007 49.7039 181.831 53.5003 176.931C57.2966 172.032 59.7639 169.26 59.7639 169.26C59.7639 169.26 62.422 176.407 58.9194 181.283C56.3318 184.697 53.4851 187.871 50.4089 190.772L49.9609 185.007Z" fill="#5DCCFC"/>
<path d="M73.2456 90.0259C72.5065 93.2872 71.6044 96.5027 70.5434 99.6583C67.474 108.393 62.4661 113.507 59.5288 121.385C56.5916 129.262 59.5288 140.689 56.6283 150.964C53.7278 161.24 49.0136 166.362 48.9622 173.604C48.9108 180.846 51.3634 200.349 51.3634 200.349" stroke="#263238" stroke-linecap="round" stroke-linejoin="round"/>
<path d="M71.241 98.2212L76.2489 95.3783" stroke="#263238" stroke-linecap="round" stroke-linejoin="round"/>
<path d="M72.1222 94.0282L70.8445 90.1292" stroke="#263238" stroke-linecap="round" stroke-linejoin="round"/>
<path d="M59.8521 121.099C59.8521 121.099 64.0376 118.788 68.3186 116.493" stroke="#263238" stroke-linecap="round" stroke-linejoin="round"/>
<path d="M62.7011 115.151C62.7011 115.151 60.6671 108.004 57.8621 103.041" stroke="#263238" stroke-linecap="round" stroke-linejoin="round"/>
<path d="M57.3774 148.423C60.1662 144.61 63.4508 141.253 67.129 138.458" stroke="#263238" stroke-linecap="round" stroke-linejoin="round"/>
<path d="M55.9455 152.743C55.279 149.674 54.3776 146.67 53.2506 143.762C51.6424 139.911 51.4075 139.402 51.4075 139.402" stroke="#263238" stroke-linecap="round" stroke-linejoin="round"/>
<path d="M49.19 179.067C49.19 179.067 45.8709 174.668 43.8002 173.024C42.5571 172.029 41.3883 170.93 40.3049 169.737" stroke="#263238" stroke-linecap="round" stroke-linejoin="round"/>
<path d="M48.9624 173.604C50.3022 171.259 51.8071 169.029 53.4637 166.934C55.0907 165.011 56.8615 163.237 58.758 161.629" stroke="#263238" stroke-linecap="round" stroke-linejoin="round"/>
<path d="M50.4089 190.772C50.5719 188.333 51.3322 185.984 52.6118 183.967C54.6752 181.029 57.0984 177.13 58.0824 175.597" stroke="#263238" stroke-linecap="round" stroke-linejoin="round"/>
</svg>
