<svg width="102" height="140" viewBox="0 0 102 140" fill="none" xmlns="http://www.w3.org/2000/svg">
<path d="M101 88.9158C101 102.177 95.7322 114.894 86.3553 124.271C76.9785 133.648 64.2608 138.916 51 138.916C37.7392 138.916 25.0215 133.648 15.6447 124.271C6.26785 114.894 1 102.177 1 88.9158C1 73.3315 20.6286 47.6476 34.5145 28.2274C45.221 13.25 51.0091 2 51.0091 2C51.0091 2 57.0462 13.5489 67.9248 28.8252C81.6929 48.1685 101 73.49 101 88.9158Z" fill="#5DCCFC"/>
<path opacity="0.2" d="M51.0001 2.00455C51.0001 2.00455 49.7863 4.36415 47.4448 8.34513C46.8877 12.7337 47.4448 20.8451 52.1278 35.6459C61.2175 64.3868 64.1522 97.24 48.9031 108.961C35.8687 118.988 17.0553 121.941 4.90405 108.309C9.38489 118.946 17.4073 127.706 27.6106 133.102C37.8138 138.498 49.5696 140.199 60.8839 137.916C72.1982 135.632 82.3743 129.506 89.6861 120.575C96.9979 111.644 100.995 100.458 101 88.9158C101 73.4901 81.693 48.1549 67.9158 28.8297C57.0372 13.5535 51.0001 2.00455 51.0001 2.00455Z" fill="black"/>
<path opacity="0.5" d="M47.558 16.5471C47.558 16.5471 36.9194 33.6576 28.3008 46.4384C19.6821 59.2192 25.2075 68.0145 34.1477 61.837C43.0879 55.6594 47.558 16.5471 47.558 16.5471Z" fill="white"/>
<path d="M40.076 32.8152C40.076 32.8152 33.4274 43.5127 28.0379 51.5063C22.6484 59.5 26.104 65.0072 31.7064 61.1395C37.3087 57.2717 40.076 32.8152 40.076 32.8152Z" fill="white"/>
<path d="M101 88.9158C101 102.177 95.7322 114.894 86.3553 124.271C76.9785 133.648 64.2608 138.916 51 138.916C37.7392 138.916 25.0215 133.648 15.6447 124.271C6.26785 114.894 1 102.177 1 88.9158C1 73.3315 20.6286 47.6476 34.5145 28.2274C45.221 13.25 51.0091 2 51.0091 2C51.0091 2 57.0462 13.5489 67.9248 28.8252C81.6929 48.1685 101 73.49 101 88.9158Z" stroke="white" stroke-miterlimit="10"/>
</svg>
