<svg width="80" height="80" viewBox="0 0 80 80" fill="none" xmlns="http://www.w3.org/2000/svg">
<g clip-path="url(#clip0_5_955)">
<path d="M40.0005 78.5716C61.3026 78.5716 78.5715 61.3027 78.5715 40.0005C78.5715 18.6984 61.3026 1.42953 40.0005 1.42953C18.6983 1.42953 1.42944 18.6984 1.42944 40.0005C1.42944 61.3027 18.6983 78.5716 40.0005 78.5716Z" fill="#F7B239"/>
<path d="M19.7354 60.2646C5.86026 46.3893 4.76699 24.5731 16.4545 9.4456C15.1599 10.4458 13.9143 11.539 12.7267 12.7265C-2.33597 27.7892 -2.33597 52.2105 12.7267 67.2731C27.7893 82.3358 52.2106 82.3358 67.2733 67.2731C68.4606 66.0858 69.554 64.8399 70.5544 63.5453C55.427 75.233 33.6107 74.1395 19.7354 60.2646Z" fill="#E09B2D"/>
<path d="M44.8566 56.8721C44.633 56.8721 44.4063 56.8194 44.1946 56.7086C42.9119 56.0371 41.4612 55.6819 39.9993 55.6819C38.5381 55.6819 37.0879 56.0369 35.8054 56.7083C35.1063 57.0747 34.2421 56.8046 33.8756 56.105C33.5093 55.4057 33.7795 54.5416 34.4788 54.1755C36.169 53.2905 38.0779 52.8227 39.9993 52.8227C41.921 52.8227 43.8305 53.2905 45.5207 54.1755C46.2202 54.5416 46.4904 55.4058 46.1241 56.105C45.869 56.5933 45.3715 56.8721 44.8566 56.8721Z" fill="#E09B2D"/>
<path d="M40.0001 0C17.9439 0 0 17.9439 0 40.0001C0 62.0563 17.9439 80.0002 40.0001 80.0002C62.0563 80.0002 80 62.0561 80 40.0001C79.9998 17.9439 62.0561 0 40.0001 0ZM40.0001 77.1406C19.5206 77.1406 2.85921 60.4796 2.85921 40.0001C2.85921 19.5206 19.5206 2.85921 40.0001 2.85921C60.4796 2.85921 77.1409 19.5204 77.1409 39.9998C77.1406 60.4796 60.4793 77.1406 40.0001 77.1406Z" fill="black"/>
<path d="M40.1783 46.9366C34.2841 46.9366 28.7425 49.2319 24.5747 53.3997C24.0164 53.958 24.0164 54.863 24.5747 55.4214C25.1332 55.9797 26.0383 55.9797 26.5966 55.4214C30.2242 51.7936 35.0477 49.7957 40.1783 49.7957C45.3089 49.7957 50.1323 51.7936 53.76 55.4214C54.0392 55.7007 54.405 55.8402 54.7711 55.8402C55.1368 55.8402 55.5028 55.7007 55.7822 55.4214C56.3404 54.8632 56.3404 53.9582 55.7822 53.3997C51.6142 49.2321 46.0725 46.9366 40.1783 46.9366Z" fill="black"/>
<path d="M25.2894 21.339C25.2894 20.5495 24.6496 19.9093 23.8597 19.9093C23.0699 19.9093 22.43 20.5495 22.43 21.339C22.43 25.5354 19.0161 28.9495 14.8196 28.9495C14.0299 28.9495 13.3899 29.5896 13.3899 30.3792C13.3899 31.1687 14.0297 31.8088 14.8196 31.8088C20.5925 31.8085 25.2894 27.112 25.2894 21.339Z" fill="black"/>
<path d="M65.1803 28.9493C60.9837 28.9493 57.5698 25.5354 57.5698 21.3389C57.5698 20.5493 56.93 19.9092 56.1401 19.9092C55.3504 19.9092 54.7104 20.5493 54.7104 21.3389C54.7104 27.1118 59.4072 31.8085 65.1801 31.8085C65.9698 31.8085 66.6098 31.1684 66.6098 30.3788C66.6098 29.5893 65.97 28.9493 65.1803 28.9493Z" fill="black"/>
<path d="M28.2152 35.9348C28.2152 33.0182 25.8424 30.6454 22.9258 30.6454C20.0093 30.6454 17.6365 33.0182 17.6365 35.9348C17.6365 38.8513 20.0093 41.2241 22.9258 41.2241C25.8424 41.2241 28.2152 38.8513 28.2152 35.9348Z" fill="black"/>
<path d="M57.074 30.6454C54.1575 30.6454 51.7847 33.0182 51.7847 35.9348C51.7847 38.8513 54.1575 41.2241 57.074 41.2241C59.9906 41.2241 62.3634 38.8513 62.3634 35.9348C62.3634 33.0182 59.9907 30.6454 57.074 30.6454Z" fill="black"/>
<path d="M23.5124 36.644C24.302 36.644 24.9421 36.0039 24.9421 35.2143C24.9421 34.4247 24.302 33.7846 23.5124 33.7846C22.7229 33.7846 22.0828 34.4247 22.0828 35.2143C22.0828 36.0039 22.7229 36.644 23.5124 36.644Z" fill="white"/>
<path d="M57.6326 36.644C58.4222 36.644 59.0622 36.0039 59.0622 35.2143C59.0622 34.4247 58.4222 33.7846 57.6326 33.7846C56.843 33.7846 56.2029 34.4247 56.2029 35.2143C56.2029 36.0039 56.843 36.644 57.6326 36.644Z" fill="white"/>
</g>
<defs>
<clipPath id="clip0_5_955">
<rect width="80" height="80" fill="white"/>
</clipPath>
</defs>
</svg>
