<svg width="289" height="236" viewBox="0 0 289 236" fill="none" xmlns="http://www.w3.org/2000/svg">
<path d="M269.65 23.243C269.65 23.243 269.65 18.1926 263.107 11.1173C256.564 4.04192 252.357 0 252.357 0C252.357 0 249.082 11.6255 255.162 18.7008C261.242 25.7762 269.65 32.3512 269.65 32.3512V23.243Z" fill="#5DCCFC"/>
<path d="M260.155 54.808C260.155 54.808 260.155 49.7576 253.612 42.6823C247.07 35.607 242.862 31.565 242.862 31.565C242.862 31.565 239.587 43.1905 245.667 50.2738C251.747 57.3571 260.155 63.9242 260.155 63.9242V54.808Z" fill="#5DCCFC"/>
<path d="M269.238 31.8509C269.238 31.8509 269.73 26.8244 276.934 20.5352C284.137 14.246 288.683 10.7123 288.683 10.7123C288.683 10.7123 290.805 22.6236 284.071 28.9764C277.338 35.3291 268.328 40.8877 268.328 40.8877L269.238 31.8509Z" fill="#5DCCFC"/>
<path d="M257.769 69.1335C257.769 69.1335 258.745 64.1943 266.514 58.7548C274.283 53.3153 279.181 50.3136 279.181 50.3136C279.181 50.3136 280.128 62.4235 272.815 67.9662C265.501 73.509 256.006 78.0274 256.006 78.0274L257.769 69.1335Z" fill="#5DCCFC"/>
<path d="M259.92 109.775C259.92 109.775 259.92 104.725 266.47 97.6492C273.02 90.5739 277.213 86.532 277.213 86.532C277.213 86.532 280.488 98.1495 274.445 105.217C268.401 112.284 259.95 118.867 259.95 118.867L259.92 109.775Z" fill="#5DCCFC"/>
<path d="M259.817 119.701C259.817 119.701 260.478 114.698 254.934 106.686C249.39 98.6737 245.748 94.0283 245.748 94.0283C245.748 94.0283 240.983 105.034 246.071 112.967C251.16 120.9 258.62 128.706 258.62 128.706L259.817 119.701Z" fill="#5DCCFC"/>
<path d="M253.363 149.098C253.363 149.098 253.363 144.048 259.905 136.973C266.448 129.897 270.656 125.855 270.656 125.855C270.656 125.855 273.923 137.481 267.851 144.556C261.778 151.632 253.363 158.207 253.363 158.207V149.098Z" fill="#5DCCFC"/>
<path d="M257.732 175.756C257.732 175.756 256.55 170.864 261.22 162.256C265.89 153.649 269.018 148.55 269.018 148.55C269.018 148.55 274.892 158.874 270.685 167.41C266.477 175.947 259.861 184.578 259.861 184.578L257.732 175.756Z" fill="#5DCCFC"/>
<path d="M270.244 21.9486C269.911 27.2103 269.313 32.4485 268.453 37.6398C265.861 52.0922 259.399 61.4625 256.814 74.4697C254.229 87.4769 261.653 104.343 259.663 121.107C257.673 137.87 251.637 147.2 253.363 158.389C255.088 169.578 264.377 200.476 264.377 200.476" stroke="#263238" stroke-linecap="round" stroke-linejoin="round"/>
<path d="M269.172 35.21L276.229 29.3575" stroke="#263238" stroke-linecap="round" stroke-linejoin="round"/>
<path d="M269.503 28.476L266.551 22.7983" stroke="#263238" stroke-linecap="round" stroke-linejoin="round"/>
<path d="M257.203 73.8742C257.203 73.8742 263.078 69.1097 269.172 64.2975" stroke="#263238" stroke-linecap="round" stroke-linejoin="round"/>
<path d="M260.155 63.9243C260.155 63.9243 255.235 53.4979 249.662 46.5814" stroke="#263238" stroke-linecap="round" stroke-linejoin="round"/>
<path d="M260.155 116.969C263.525 110.252 267.779 104.1 272.785 98.7053" stroke="#263238" stroke-linecap="round" stroke-linejoin="round"/>
<path d="M259.024 124.061C257.232 119.502 255.093 115.111 252.629 110.934C249.185 105.439 248.693 104.733 248.693 104.733" stroke="#263238" stroke-linecap="round" stroke-linejoin="round"/>
<path d="M253.363 158.421C254.857 154.404 256.634 150.518 258.679 146.795C260.72 143.324 263.024 140.041 265.567 136.981" stroke="#263238" stroke-linecap="round" stroke-linejoin="round"/>
<path d="M259.861 184.554C259.861 184.554 259.171 178.504 261.631 173.366C264.091 168.228 266.881 161.454 268.027 158.818" stroke="#263238" stroke-linecap="round" stroke-linejoin="round"/>
<path d="M216.251 90.7726C216.251 90.7726 215.744 87.5962 219.137 82.3949C222.529 77.1936 224.762 74.1602 224.762 74.1602C224.762 74.1602 227.978 81.0688 224.879 86.2145C222.58 89.8647 220.001 93.2994 217.169 96.4821L216.251 90.7726Z" fill="#5DCCFC"/>
<path d="M225.378 109.449C225.378 109.449 224.872 106.273 228.264 101.072C231.657 95.8705 233.889 92.837 233.889 92.837C233.889 92.837 237.105 99.7456 234.007 104.891C231.705 108.539 229.123 111.971 226.289 115.151L225.378 109.449Z" fill="#5DCCFC"/>
<path d="M217.375 96.1167C217.375 96.1167 216.56 93.0277 211.412 89.9307C206.265 86.8338 203.041 85.1662 203.041 85.1662C203.041 85.1662 202.916 92.9006 207.77 96.0849C211.309 98.2937 215.013 100.177 218.843 101.715L217.375 96.1167Z" fill="#5DCCFC"/>
<path d="M228.308 118.153C228.308 118.153 227.2 115.167 221.781 112.666C216.361 110.164 212.969 108.862 212.969 108.862C212.969 108.862 213.593 116.565 218.733 119.185C222.464 120.978 226.328 122.428 230.284 123.521L228.308 118.153Z" fill="#5DCCFC"/>
<path d="M231.04 143.889C231.04 143.889 230.533 140.713 225.716 137.052C220.899 133.391 217.859 131.342 217.859 131.342C217.859 131.342 216.978 139.013 221.494 142.738C224.797 145.335 228.295 147.63 231.95 149.599L231.04 143.889Z" fill="#5DCCFC"/>
<path d="M232.105 150.099C232.105 150.099 231.187 147.042 233.86 141.364C236.533 135.686 238.346 132.351 238.346 132.351C238.346 132.351 242.436 138.704 240.042 144.262C238.245 148.226 236.142 152.019 233.757 155.602L232.105 150.099Z" fill="#5DCCFC"/>
<path d="M240.314 175.661C240.314 175.661 240.652 172.484 245.263 168.514C249.875 164.543 252.812 162.328 252.812 162.328C252.812 162.328 254.097 169.935 249.779 173.937C246.62 176.74 243.25 179.253 239.705 181.45L240.314 175.661Z" fill="#5DCCFC"/>
<path d="M239.103 167.775C239.103 167.775 238.596 164.599 233.779 160.938C228.962 157.277 225.922 155.229 225.922 155.229C225.922 155.229 225.041 162.9 229.557 166.624C232.859 169.229 236.357 171.532 240.013 173.509L239.103 167.775Z" fill="#5DCCFC"/>
<path d="M239.037 185.007C239.037 185.007 239.286 181.831 235.49 176.931C231.694 172.032 229.226 169.26 229.226 169.26C229.226 169.26 226.575 176.407 230.071 181.283C232.658 184.697 235.505 187.871 238.581 190.772L239.037 185.007Z" fill="#5DCCFC"/>
<path d="M215.752 90.0259C216.485 93.288 217.385 96.5036 218.447 99.6583C221.523 108.393 226.524 113.507 229.461 121.385C232.398 129.262 229.425 140.689 232.354 150.964C235.284 161.24 240.006 166.386 240.05 173.604C240.094 180.822 237.649 200.349 237.649 200.349" stroke="#263238" stroke-linecap="round" stroke-linejoin="round"/>
<path d="M217.749 98.2212L212.741 95.3783" stroke="#263238" stroke-linecap="round" stroke-linejoin="round"/>
<path d="M216.868 94.0282L218.153 90.1292" stroke="#263238" stroke-linecap="round" stroke-linejoin="round"/>
<path d="M229.138 121.099C229.138 121.099 224.96 118.788 220.672 116.493" stroke="#263238" stroke-linecap="round" stroke-linejoin="round"/>
<path d="M226.289 115.151C226.289 115.151 228.323 108.004 231.128 103.041" stroke="#263238" stroke-linecap="round" stroke-linejoin="round"/>
<path d="M231.613 148.423C228.826 144.608 225.541 141.251 221.861 138.458" stroke="#263238" stroke-linecap="round" stroke-linejoin="round"/>
<path d="M233.045 152.743C233.711 149.674 234.612 146.67 235.739 143.762C237.348 139.911 237.583 139.402 237.583 139.402" stroke="#263238" stroke-linecap="round" stroke-linejoin="round"/>
<path d="M239.808 179.067C239.808 179.067 243.127 174.668 245.19 173.024C246.436 172.031 247.608 170.931 248.693 169.737" stroke="#263238" stroke-linecap="round" stroke-linejoin="round"/>
<path d="M240.035 173.604C238.692 171.261 237.188 169.031 235.534 166.934C233.903 165.012 232.13 163.238 230.232 161.629" stroke="#263238" stroke-linecap="round" stroke-linejoin="round"/>
<path d="M238.581 190.772C238.423 188.332 237.662 185.982 236.378 183.967C234.322 181.029 231.899 177.13 230.908 175.597" stroke="#263238" stroke-linecap="round" stroke-linejoin="round"/>
<path d="M19.3406 23.243C19.3406 23.243 19.3406 18.1926 25.8832 11.1173C32.4259 4.04192 36.6334 0 36.6334 0C36.6334 0 39.9084 11.6255 33.8357 18.7008C27.763 25.7762 19.3406 32.3512 19.3406 32.3512V23.243Z" fill="#5DCCFC"/>
<path d="M28.8424 54.808C28.8424 54.808 28.8424 49.7576 35.385 42.6823C41.9277 35.607 46.1352 31.565 46.1352 31.565C46.1352 31.565 49.4029 43.1905 43.3302 50.2738C37.2575 57.3571 28.8424 63.9242 28.8424 63.9242V54.808Z" fill="#5DCCFC"/>
<path d="M19.7518 31.8509C19.7518 31.8509 19.2598 26.8244 12.0636 20.5352C4.86745 14.246 0.31477 10.7123 0.31477 10.7123C0.31477 10.7123 -1.80002 22.6236 4.93353 28.9764C11.6671 35.3291 20.6696 40.8877 20.6696 40.8877L19.7518 31.8509Z" fill="#5DCCFC"/>
<path d="M31.229 69.1335C31.229 69.1335 30.245 64.1943 22.4761 58.7548C14.7072 53.3153 9.80938 50.3136 9.80938 50.3136C9.80938 50.3136 8.86947 62.4235 16.1758 67.9662C23.4821 73.509 32.9913 78.0274 32.9913 78.0274L31.229 69.1335Z" fill="#5DCCFC"/>
<path d="M29.0701 109.775C29.0701 109.775 29.0701 104.725 22.5275 97.6492C15.9848 90.5739 11.7773 86.532 11.7773 86.532C11.7773 86.532 8.50231 98.1495 14.5823 105.217C20.6624 112.284 29.0701 118.875 29.0701 118.875V109.775Z" fill="#5DCCFC"/>
<path d="M29.1876 119.701C29.1876 119.701 28.5194 114.698 34.0707 106.686C39.6221 98.6737 43.2495 94.0283 43.2495 94.0283C43.2495 94.0283 48.0152 105.034 42.9338 112.967C37.8524 120.9 30.3845 128.706 30.3845 128.706L29.1876 119.701Z" fill="#5DCCFC"/>
<path d="M35.6347 149.098C35.6347 149.098 35.6347 144.048 29.0847 136.973C22.5348 129.897 18.3419 125.855 18.3419 125.855C18.3419 125.855 15.0669 137.473 21.1102 144.548C27.1535 151.624 35.6053 158.199 35.6053 158.199L35.6347 149.098Z" fill="#5DCCFC"/>
<path d="M31.2656 175.756C31.2656 175.756 32.4478 170.864 27.7703 162.256C23.0928 153.649 19.9794 148.55 19.9794 148.55C19.9794 148.55 14.105 158.874 18.3125 167.41C22.5201 175.947 29.1288 184.578 29.1288 184.578L31.2656 175.756Z" fill="#5DCCFC"/>
<path d="M18.7531 21.9486C19.0825 27.2107 19.6806 32.4491 20.5448 37.6398C23.1295 52.0922 29.5987 61.4625 32.1834 74.4697C34.7682 87.4769 27.3444 104.343 29.3343 121.099C31.3243 137.854 37.3529 147.192 35.6347 158.381C33.9164 169.57 24.6201 200.468 24.6201 200.468" stroke="#263238" stroke-linecap="round" stroke-linejoin="round"/>
<path d="M19.8179 35.21L12.7686 29.3575" stroke="#263238" stroke-linecap="round" stroke-linejoin="round"/>
<path d="M19.4948 28.476L22.4466 22.7983" stroke="#263238" stroke-linecap="round" stroke-linejoin="round"/>
<path d="M31.7869 73.8742C31.7869 73.8742 25.9125 69.1097 19.8177 64.2975" stroke="#263238" stroke-linecap="round" stroke-linejoin="round"/>
<path d="M28.8424 63.9243C28.8424 63.9243 33.7549 53.4979 39.3356 46.5814" stroke="#263238" stroke-linecap="round" stroke-linejoin="round"/>
<path d="M28.8351 116.969C25.4665 110.253 21.2146 104.101 16.2124 98.7053" stroke="#263238" stroke-linecap="round" stroke-linejoin="round"/>
<path d="M29.9879 124.061C31.7804 119.502 33.9197 115.111 36.3837 110.934C39.8276 105.439 40.3196 104.733 40.3196 104.733" stroke="#263238" stroke-linecap="round" stroke-linejoin="round"/>
<path d="M35.6348 158.421C34.1365 154.405 32.3568 150.518 30.3111 146.795C28.2737 143.323 25.9723 140.04 23.4307 136.981" stroke="#263238" stroke-linecap="round" stroke-linejoin="round"/>
<path d="M29.1288 184.554C29.1288 184.554 29.819 178.504 27.3665 173.366C24.9139 168.228 22.1162 161.454 20.9707 158.818" stroke="#263238" stroke-linecap="round" stroke-linejoin="round"/>
<path d="M72.739 90.7726C72.739 90.7726 73.2457 87.5962 69.8532 82.3949C66.4607 77.1936 64.2285 74.1602 64.2285 74.1602C64.2285 74.1602 61.0122 81.0688 64.111 86.2145C66.4126 89.8651 68.9942 93.2997 71.8285 96.4821L72.739 90.7726Z" fill="#5DCCFC"/>
<path d="M63.619 109.449C63.619 109.449 64.1257 106.273 60.7332 101.072C57.3407 95.8705 55.1085 92.837 55.1085 92.837C55.1085 92.837 51.8922 99.7456 54.991 104.891C57.2916 108.538 59.8706 111.97 62.7011 115.151L63.619 109.449Z" fill="#5DCCFC"/>
<path d="M71.6229 96.1167C71.6229 96.1167 72.4306 93.0277 77.5781 89.9307C82.7256 86.8338 85.9492 85.1662 85.9492 85.1662C85.9492 85.1662 86.0813 92.9006 81.2202 96.0849C77.6836 98.2929 73.982 100.176 70.1543 101.715L71.6229 96.1167Z" fill="#5DCCFC"/>
<path d="M60.6818 118.153C60.6818 118.153 61.7906 115.167 67.2098 112.666C72.6289 110.164 76.0214 108.862 76.0214 108.862C76.0214 108.862 75.3972 116.565 70.2571 119.185C66.5262 120.978 62.6624 122.428 58.7065 123.521L60.6818 118.153Z" fill="#5DCCFC"/>
<path d="M57.9575 143.889C57.9575 143.889 58.4642 140.713 63.2739 137.052C68.0836 133.391 71.1309 131.342 71.1309 131.342C71.1309 131.342 72.0194 139.013 67.4594 142.738C64.1573 145.337 60.6596 147.632 57.0029 149.599L57.9575 143.889Z" fill="#5DCCFC"/>
<path d="M56.8928 150.099C56.8928 150.099 57.8107 147.042 55.1378 141.364C52.4649 135.686 50.6512 132.351 50.6512 132.351C50.6512 132.351 46.5538 138.704 48.9476 144.262C50.7493 148.225 52.8543 152.018 55.2406 155.602L56.8928 150.099Z" fill="#5DCCFC"/>
<path d="M48.676 175.661C48.676 175.661 48.3382 172.484 43.7268 168.514C39.1154 164.543 36.1855 162.328 36.1855 162.328C36.1855 162.328 34.8931 169.935 39.2108 173.937C42.3699 176.74 45.7398 179.253 49.2855 181.45L48.676 175.661Z" fill="#5DCCFC"/>
<path d="M49.8948 167.775C49.8948 167.775 50.4015 164.599 55.2112 160.938C60.0209 157.277 63.0682 155.229 63.0682 155.229C63.0682 155.229 63.9567 162.9 59.4334 166.624C56.1439 169.229 52.6585 171.532 49.0137 173.509L49.8948 167.775Z" fill="#5DCCFC"/>
<path d="M49.9609 185.007C49.9609 185.007 49.7039 181.831 53.5003 176.931C57.2966 172.032 59.7639 169.26 59.7639 169.26C59.7639 169.26 62.422 176.407 58.9194 181.283C56.3318 184.697 53.4851 187.871 50.4089 190.772L49.9609 185.007Z" fill="#5DCCFC"/>
<path d="M73.2457 90.0259C72.5066 93.2872 71.6045 96.5027 70.5435 99.6583C67.4741 108.393 62.4662 113.507 59.529 121.385C56.5918 129.262 59.529 140.689 56.6285 150.964C53.728 161.24 49.0137 166.362 48.9623 173.604C48.9109 180.846 51.3635 200.349 51.3635 200.349" stroke="#263238" stroke-linecap="round" stroke-linejoin="round"/>
<path d="M71.2411 98.2212L76.249 95.3783" stroke="#263238" stroke-linecap="round" stroke-linejoin="round"/>
<path d="M72.1222 94.0282L70.8445 90.1292" stroke="#263238" stroke-linecap="round" stroke-linejoin="round"/>
<path d="M59.8521 121.099C59.8521 121.099 64.0376 118.788 68.3186 116.493" stroke="#263238" stroke-linecap="round" stroke-linejoin="round"/>
<path d="M62.7011 115.151C62.7011 115.151 60.6671 108.004 57.8621 103.041" stroke="#263238" stroke-linecap="round" stroke-linejoin="round"/>
<path d="M57.3774 148.423C60.1662 144.61 63.4508 141.253 67.129 138.458" stroke="#263238" stroke-linecap="round" stroke-linejoin="round"/>
<path d="M55.9456 152.743C55.2791 149.674 54.3777 146.67 53.2507 143.762C51.6426 139.911 51.4076 139.402 51.4076 139.402" stroke="#263238" stroke-linecap="round" stroke-linejoin="round"/>
<path d="M49.19 179.067C49.19 179.067 45.8709 174.668 43.8002 173.024C42.5571 172.029 41.3883 170.93 40.3049 169.737" stroke="#263238" stroke-linecap="round" stroke-linejoin="round"/>
<path d="M48.9624 173.604C50.3022 171.259 51.8071 169.029 53.4637 166.934C55.0907 165.011 56.8615 163.237 58.758 161.629" stroke="#263238" stroke-linecap="round" stroke-linejoin="round"/>
<path d="M50.4089 190.772C50.5719 188.333 51.3322 185.984 52.6118 183.967C54.6752 181.029 57.0984 177.13 58.0824 175.597" stroke="#263238" stroke-linecap="round" stroke-linejoin="round"/>
<path d="M190 184.916C190 198.177 184.732 210.894 175.355 220.271C165.979 229.648 153.261 234.916 140 234.916C126.739 234.916 114.021 229.648 104.645 220.271C95.2678 210.894 90 198.177 90 184.916C90 169.332 109.629 143.648 123.514 124.227C134.221 109.25 140.009 98 140.009 98C140.009 98 146.046 109.549 156.925 124.825C170.693 144.168 190 169.49 190 184.916Z" fill="#5DCCFC"/>
<path opacity="0.2" d="M140 98.0045C140 98.0045 138.786 100.364 136.445 104.345C135.888 108.734 136.445 116.845 141.128 131.646C150.217 160.387 153.152 193.24 137.903 204.961C124.869 214.988 106.055 217.941 93.9041 204.309C98.3849 214.946 106.407 223.706 116.611 229.102C126.814 234.498 138.57 236.199 149.884 233.916C161.198 231.632 171.374 225.506 178.686 216.575C185.998 207.644 189.995 196.458 190 184.916C190 169.49 170.693 144.155 156.916 124.83C146.037 109.553 140 98.0045 140 98.0045Z" fill="black"/>
<path opacity="0.5" d="M136.558 112.547C136.558 112.547 125.919 129.658 117.301 142.438C108.682 155.219 114.207 164.015 123.148 157.837C132.088 151.659 136.558 112.547 136.558 112.547Z" fill="white"/>
<path d="M129.076 128.815C129.076 128.815 122.428 139.513 117.038 147.506C111.649 155.5 115.104 161.007 120.707 157.139C126.309 153.272 129.076 128.815 129.076 128.815Z" fill="white"/>
<path d="M190 184.916C190 198.177 184.732 210.894 175.355 220.271C165.979 229.648 153.261 234.916 140 234.916C126.739 234.916 114.021 229.648 104.645 220.271C95.2678 210.894 90 198.177 90 184.916C90 169.332 109.629 143.648 123.514 124.227C134.221 109.25 140.009 98 140.009 98C140.009 98 146.046 109.549 156.925 124.825C170.693 144.168 190 169.49 190 184.916Z" stroke="white" stroke-miterlimit="10"/>
<g clip-path="url(#clip0_50_997)">
<path d="M139.001 225.572C160.303 225.572 177.572 208.303 177.572 187.001C177.572 165.698 160.303 148.43 139.001 148.43C117.698 148.43 100.43 165.698 100.43 187.001C100.43 208.303 117.698 225.572 139.001 225.572Z" fill="#F7B239"/>
<path d="M118.736 207.265C104.86 193.389 103.767 171.573 115.455 156.446C114.16 157.446 112.914 158.539 111.727 159.727C96.6639 174.789 96.6639 199.211 111.727 214.273C126.789 229.336 151.211 229.336 166.273 214.273C167.461 213.086 168.554 211.84 169.554 210.545C154.427 222.233 132.611 221.14 118.736 207.265Z" fill="#E09B2D"/>
<path d="M118.986 189.769H157.872C157.872 191.952 157.511 194.051 156.848 196.01H120.01C119.346 194.051 118.986 191.952 118.986 189.769Z" fill="white"/>
<path d="M120.01 196.01H156.848C155.54 199.872 153.053 203.187 149.814 205.53C148.453 203.236 145.952 201.7 143.091 201.7C141.343 201.7 139.731 202.274 138.429 203.244C137.127 202.274 135.512 201.7 133.764 201.7C130.905 201.7 128.402 203.236 127.043 205.53C123.805 203.187 121.317 199.872 120.01 196.01Z" fill="#A81004"/>
<path d="M143.091 201.7C145.952 201.7 148.453 203.236 149.814 205.53C146.614 207.847 142.68 209.212 138.429 209.212C134.178 209.212 130.244 207.847 127.043 205.53C128.402 203.236 130.905 201.7 133.764 201.7C135.512 201.7 137.127 202.274 138.429 203.244C139.731 202.274 141.343 201.7 143.091 201.7Z" fill="#F95428"/>
<path d="M139 147C116.944 147 99 164.944 99 187C99 209.056 116.944 227 139 227C161.056 227 179 209.056 179 187C179 164.944 161.056 147 139 147ZM139 224.141C118.521 224.141 101.859 207.48 101.859 187C101.859 166.52 118.52 149.859 139 149.859C159.48 149.859 176.141 166.52 176.141 187C176.141 207.479 159.479 224.141 139 224.141Z" fill="black"/>
<path d="M121.926 184.294C124.842 184.294 127.215 181.921 127.215 179.005C127.215 176.088 124.842 173.715 121.926 173.715C119.009 173.715 116.636 176.088 116.636 179.005C116.636 181.921 119.009 184.294 121.926 184.294Z" fill="black"/>
<path d="M156.075 173.715C153.158 173.715 150.785 176.088 150.785 179.005C150.785 181.921 153.158 184.294 156.075 184.294C158.991 184.294 161.364 181.921 161.364 179.005C161.364 176.088 158.991 173.715 156.075 173.715Z" fill="black"/>
<path d="M157.872 188.34H118.986C118.197 188.34 117.556 188.98 117.556 189.769C117.556 192.06 117.926 194.314 118.655 196.469C120.051 200.591 122.662 204.125 126.205 206.688C129.777 209.275 134.004 210.642 138.429 210.642C142.854 210.642 147.081 209.275 150.652 206.688C154.195 204.125 156.806 200.591 158.202 196.469C158.931 194.315 159.301 192.061 159.301 189.77C159.301 188.98 158.661 188.34 157.872 188.34ZM156.386 191.199C156.296 192.345 156.096 193.476 155.791 194.58H121.067C120.761 193.476 120.561 192.346 120.471 191.199H156.386ZM129.088 205.174C130.284 203.891 131.979 203.13 133.764 203.13C135.15 203.13 136.468 203.565 137.574 204.39C138.081 204.768 138.776 204.768 139.283 204.39C140.389 203.565 141.706 203.13 143.091 203.13C144.875 203.13 146.571 203.891 147.768 205.174C144.96 206.885 141.759 207.783 138.428 207.783C135.097 207.783 131.897 206.885 129.088 205.174ZM150.097 203.492C148.357 201.477 145.795 200.27 143.091 200.27C141.431 200.27 139.838 200.703 138.429 201.531C137.019 200.703 135.425 200.27 133.764 200.27C131.059 200.27 128.497 201.477 126.76 203.492C124.787 201.818 123.216 199.764 122.124 197.44H154.733C153.641 199.765 152.07 201.819 150.097 203.492Z" fill="black"/>
<path d="M122.512 179.713C123.302 179.713 123.942 179.073 123.942 178.284C123.942 177.494 123.302 176.854 122.512 176.854C121.723 176.854 121.083 177.494 121.083 178.284C121.083 179.073 121.723 179.713 122.512 179.713Z" fill="white"/>
<path d="M156.633 179.713C157.422 179.713 158.062 179.073 158.062 178.284C158.062 177.494 157.422 176.854 156.633 176.854C155.843 176.854 155.203 177.494 155.203 178.284C155.203 179.073 155.843 179.713 156.633 179.713Z" fill="white"/>
</g>
<defs>
<clipPath id="clip0_50_997">
<rect width="80" height="80" fill="white" transform="translate(99 147)"/>
</clipPath>
</defs>
</svg>
