<svg width="375" height="158" viewBox="0 0 375 158" fill="none" xmlns="http://www.w3.org/2000/svg">
<path opacity="0.4" d="M178.5 37.6944C107.341 63.8051 45.1835 -19.2353 -14.4017 7.3034C-49.9813 15.8643 -121.826 33.9277 -124.57 37.6944C-127.313 41.4612 -130 124.873 -131 166.107L397.551 253C433.559 208.626 495.373 107.209 454.564 56.5283C403.552 -6.82202 249.659 11.5838 178.5 37.6944Z" fill="white" fill-opacity="0.41"/>
<path opacity="0.4" d="M244.415 45.9958C185.564 66.5764 93.5224 40.475 46.2619 63.3128C17.4527 72.4586 -4.90847 76.3284 -6.87878 78.9486C-8.84909 81.5689 -4.33405 133.278 -1.83023 158.805L443.447 154.899C469.717 123.63 512.773 54.3926 474.839 27.5891C427.421 -5.91527 303.882 25.1997 244.415 45.9958Z" fill="white" fill-opacity="0.41"/>
</svg>
