<svg width="65" height="106" viewBox="0 0 65 106" fill="none" xmlns="http://www.w3.org/2000/svg">
<path fill-rule="evenodd" clip-rule="evenodd" d="M64.7591 69.4502C62.5826 37.7735 44.7338 35.4503 32.5196 0.830933C20.3064 35.4503 2.45746 37.7735 0.281079 69.4502C-3.05671 118.024 68.0969 118.024 64.7591 69.4502ZM19.6905 44.2834C17.3918 47.3675 15.5154 50.7449 14.1113 54.326C11.6701 60.6398 10.6862 67.4234 11.2332 74.1706C11.6903 79.7117 13.0185 87.3542 18.4183 90.2487C21.0721 91.6711 18.7098 95.7029 16.0603 94.2827C12.3337 92.2852 10.0803 88.6226 8.68007 84.7499C6.15193 77.7576 5.91321 69.8745 7.06117 62.5903C8.24009 55.1159 11.1869 48.0311 15.6564 41.9254C15.9787 41.4011 16.4909 41.0214 17.0863 40.8653C17.6816 40.7092 18.3142 40.7887 18.8524 41.0874C19.3841 41.403 19.7701 41.9154 19.927 42.5135C20.0838 43.1116 19.9989 43.7474 19.6905 44.2834ZM29.1073 98.4836C28.9218 99.0591 28.5424 99.5525 28.0339 99.8796C27.7742 100.048 27.4744 100.143 27.1654 100.157C26.8567 100.226 26.535 100.212 26.2338 100.115C25.4348 99.8428 24.6357 99.5704 23.8367 99.2981C23.4468 99.1905 23.0916 98.9835 22.8059 98.6973L22.4406 98.2246C22.2311 97.867 22.121 97.46 22.1217 97.0456L22.2051 96.4246C22.3907 95.849 22.7701 95.3557 23.2787 95.0286C23.5384 94.8605 23.8382 94.7649 24.1472 94.7514C24.4558 94.6817 24.7774 94.6961 25.0786 94.7931L27.4758 95.6101C27.8657 95.7176 28.2209 95.9246 28.5066 96.2108L28.8719 96.6836C29.0813 97.0412 29.1914 97.4482 29.1908 97.8626C29.163 98.0696 29.1352 98.2766 29.1073 98.4836Z" fill="#5DCCFC"/>
</svg>
